<?xml version="1.0" encoding="iso-8859-1"?>
<!-- Generator: Adobe Illustrator 19.0.0, SVG Export Plug-In . SVG Version: 6.00 Build 0)  -->
<svg version="1.1" id="Capa_1" xmlns="http://www.w3.org/2000/svg" xmlns:xlink="http://www.w3.org/1999/xlink" x="0px" y="0px"
	 viewBox="0 0 512 512" style="enable-background:new 0 0 512 512;" xml:space="preserve">
<path style="fill:#005FE4;" d="M180,135.164v150c0,8.399-6.599,15-15,15s-15-6.601-15-15v-150c0-8.401,6.599-15,15-15
	S180,126.763,180,135.164z"/>
<path style="fill:#0050C3;" d="M180,135.164v150c0,8.399-6.599,15-15,15v-180C173.401,120.164,180,126.763,180,135.164z"/>
<path style="fill:#ECECF1;" d="M512,315.164v120c0,24.899-20.099,45-45,45H45c-24.901,0-45-20.101-45-45v-120
	c0-24.901,20.099-45,45-45h15l30,15h332l30-15h15C491.901,270.164,512,290.263,512,315.164z"/>
<path style="fill:#D3D3D8;" d="M512,315.164v120c0,24.899-20.099,45-45,45H165v-195h257l30-15h15
	C491.901,270.164,512,290.263,512,315.164z"/>
<path style="fill:#0050C3;" d="M452,270.164v45c0,24.899-20.099,45-45,45H105c-24.901,0-45-20.101-45-45v-45H452z"/>
<path style="fill:#0040A0;" d="M452,270.164v45c0,24.899-20.099,45-45,45H165v-90H452z"/>
<g>
	<path style="fill:#0095FF;" d="M346,420.164h-30c-8.291,0-15-6.709-15-15s6.709-15,15-15h30c8.291,0,15,6.709,15,15
		S354.291,420.164,346,420.164z"/>
	<path style="fill:#0095FF;" d="M437,420.164h-30c-8.291,0-15-6.709-15-15s6.709-15,15-15h30c8.291,0,15,6.709,15,15
		S445.291,420.164,437,420.164z"/>
</g>
<path style="fill:#00F7FF;" d="M12.993,169.338C4.365,148.992,0,127.4,0,105.164s4.365-43.828,12.993-64.175
	c3.237-7.646,12.129-11.177,19.658-7.969c7.632,3.237,11.191,12.041,7.969,19.658C33.574,69.319,30,86.97,30,105.164
	s3.574,35.845,10.62,52.485c3.223,7.617-0.337,16.421-7.969,19.658C25.065,180.517,16.248,177.005,12.993,169.338z"/>
<path style="fill:#00FFE7;" d="M297.349,177.307c-7.632-3.237-11.191-12.041-7.969-19.658c7.046-16.641,10.62-34.292,10.62-52.485
	s-3.574-35.845-10.62-52.485c-3.223-7.617,0.337-16.421,7.969-19.658c7.559-3.208,16.406,0.322,19.658,7.969
	C325.635,61.335,330,82.927,330,105.164s-4.365,43.828-12.993,64.175C313.749,177.011,304.929,180.514,297.349,177.307z"/>
<path style="fill:#00F7FF;" d="M68.276,146.018C62.783,133.069,60,119.329,60,105.164s2.783-27.905,8.276-40.854
	c3.252-7.632,12.085-11.177,19.673-7.954c7.632,3.237,11.191,12.056,7.954,19.673C91.978,85.242,90,95.056,90,105.164
	s1.978,19.922,5.903,29.136c3.237,7.617-0.322,16.436-7.954,19.673C80.385,157.172,71.544,153.696,68.276,146.018z"/>
<path style="fill:#00FFE7;" d="M242.051,153.972c-7.632-3.237-11.191-12.056-7.954-19.673c3.926-9.214,5.903-19.028,5.903-29.136
	s-1.978-19.922-5.903-29.136c-3.237-7.617,0.322-16.436,7.954-19.673c7.559-3.223,16.436,0.322,19.673,7.954
	c5.493,12.95,8.276,26.691,8.276,40.856s-2.783,27.905-8.276,40.854C258.456,153.696,249.615,157.172,242.051,153.972z"/>
<path style="fill:#3AAAFF;" d="M165,60.164c-24.901,0-45,20.099-45,45c0,24.899,20.099,45,45,45s45-20.101,45-45
	C210,80.263,189.901,60.164,165,60.164z"/>
<path style="fill:#00C0F1;" d="M150,300.164v30h-45c-8.401,0-15-6.601-15-15v-15H150z"/>
<rect x="180" y="300.16" style="fill:#0095FF;" width="60" height="30"/>
<rect x="270" y="300.16" style="fill:#F03800;" width="61" height="30"/>
<g>
	<path style="fill:#0095FF;" d="M422,300.164v15c0,8.399-6.599,15-15,15h-46v-30H422z"/>
	<path style="fill:#0095FF;" d="M165,150.164v-90c24.901,0,45,20.099,45,45C210,130.062,189.901,150.164,165,150.164z"/>
</g>
<g>
</g>
<g>
</g>
<g>
</g>
<g>
</g>
<g>
</g>
<g>
</g>
<g>
</g>
<g>
</g>
<g>
</g>
<g>
</g>
<g>
</g>
<g>
</g>
<g>
</g>
<g>
</g>
<g>
</g>
</svg>
